<svg xmlns="http://www.w3.org/2000/svg" viewBox="0 0 39.72 39.72"><title>instagram</title><g id="Layer_2" data-name="Layer 2"><g id="Layer_1-2" data-name="Layer 1"><path d="M28.83,13.08a3.76,3.76,0,0,0-2.16-2.16,6.28,6.28,0,0,0-2.11-.39c-1.2-.06-1.56-.07-4.59-.07s-3.39,0-4.59.07a6.29,6.29,0,0,0-2.11.39,3.76,3.76,0,0,0-2.16,2.16,6.29,6.29,0,0,0-.39,2.11c-.06,1.2-.07,1.56-.07,4.59s0,3.39.07,4.59a6.31,6.31,0,0,0,.39,2.11,3.77,3.77,0,0,0,2.16,2.16,6.28,6.28,0,0,0,2.11.39c1.2.05,1.56.07,4.59.07s3.4,0,4.59-.07a6.27,6.27,0,0,0,2.11-.39,3.77,3.77,0,0,0,2.16-2.16,6.31,6.31,0,0,0,.39-2.11c.06-1.2.07-1.56.07-4.59s0-3.39-.07-4.59a6.29,6.29,0,0,0-.39-2.11M20,25.62a5.84,5.84,0,1,1,5.84-5.84A5.84,5.84,0,0,1,20,25.62M26,15.08a1.36,1.36,0,1,1,1.36-1.36A1.37,1.37,0,0,1,26,15.08M20,16a3.79,3.79,0,1,0,3.79,3.79A3.79,3.79,0,0,0,20,16M19.86,0A19.86,19.86,0,1,0,39.72,19.86,19.88,19.88,0,0,0,19.86,0M31.26,24.47a8.34,8.34,0,0,1-.53,2.76,5.81,5.81,0,0,1-3.32,3.32,8.3,8.3,0,0,1-2.76.53c-1.21.06-1.6.07-4.69.07s-3.47,0-4.69-.07a8.32,8.32,0,0,1-2.76-.53A5.81,5.81,0,0,1,9.2,27.23a8.34,8.34,0,0,1-.53-2.76c-.05-1.21-.07-1.6-.07-4.69s0-3.47.07-4.69a8.34,8.34,0,0,1,.53-2.76A5.81,5.81,0,0,1,12.52,9a8.37,8.37,0,0,1,2.76-.53c1.21-.06,1.6-.07,4.69-.07s3.47,0,4.69.07A8.35,8.35,0,0,1,27.41,9a5.81,5.81,0,0,1,3.32,3.32,8.34,8.34,0,0,1,.53,2.76c.06,1.21.07,1.6.07,4.69s0,3.47-.07,4.69" style="fill:#036483"/></g></g></svg>