<svg xmlns="http://www.w3.org/2000/svg" viewBox="0 0 78.2 78.2"><title>17123_youtube</title><g id="Layer_2" data-name="Layer 2"><g id="Layer_1-2" data-name="Layer 1"><polygon points="20.54 41.98 23.64 41.98 23.64 58.77 26.57 58.77 26.57 41.98 29.73 41.98 29.73 39.24 20.54 39.24 20.54 41.98" style="fill:#056584"/><path d="M45.34,44a3.58,3.58,0,0,0-2.73,1.58V39.24H40V58.77h2.64V57.36A3.61,3.61,0,0,0,45.34,59a2.09,2.09,0,0,0,2.1-1.64,11.64,11.64,0,0,0,.27-2.93V48.61a11.24,11.24,0,0,0-.27-2.93A2.09,2.09,0,0,0,45.34,44m-.27,10.57c0,1.31-.38,2-1.15,2a1.88,1.88,0,0,1-1.32-.65V47.05a1.9,1.9,0,0,1,1.32-.64c.76,0,1.15.67,1.15,2Z" style="fill:#056584"/><path d="M35.06,55.33c-.59.83-1.14,1.23-1.67,1.23-.35,0-.55-.21-.62-.62a8.49,8.49,0,0,1,0-1V44.22H30.11v11.5a7.37,7.37,0,0,0,.24,2.16A1.62,1.62,0,0,0,32,59a4.22,4.22,0,0,0,3-1.79v1.59H37.7V44.22H35.06Z" style="fill:#056584"/><path d="M37.32,30.77c.86,0,1.27-.68,1.27-2V22.55c0-1.36-.41-2-1.27-2s-1.27.68-1.27,2v6.18c0,1.36.41,2,1.27,2" style="fill:#056584"/><path d="M39.1,0A39.1,39.1,0,1,0,78.2,39.1,39.1,39.1,0,0,0,39.1,0m4.35,18.29H46.1V29.11a6.44,6.44,0,0,0,0,1c.06.42.27.63.63.63.53,0,1.09-.41,1.68-1.25V18.29h2.66V33H48.44v-1.6a4.28,4.28,0,0,1-3,1.81,1.64,1.64,0,0,1-1.72-1.09,7.57,7.57,0,0,1-.23-2.19ZM33.39,23.08a5.72,5.72,0,0,1,.83-3.47,4,4,0,0,1,6.21,0,5.77,5.77,0,0,1,.83,3.47v5.15a5.75,5.75,0,0,1-.83,3.46,4,4,0,0,1-6.21,0,5.69,5.69,0,0,1-.83-3.46Zm-7.12-9.82L28.36,21l2-7.75h3L29.81,25v8h-3V25A48.85,48.85,0,0,0,25,18.76c-.62-1.83-1.27-3.67-1.9-5.5ZM60.15,60a5.52,5.52,0,0,1-4.72,4.29,146.81,146.81,0,0,1-16.33.6,146.84,146.84,0,0,1-16.34-.6A5.52,5.52,0,0,1,18,60a46.87,46.87,0,0,1-.76-10.31,46.55,46.55,0,0,1,.77-10.31,5.51,5.51,0,0,1,4.71-4.29,146.83,146.83,0,0,1,16.33-.6,146.82,146.82,0,0,1,16.34.6,5.52,5.52,0,0,1,4.72,4.29,46.84,46.84,0,0,1,.75,10.31A46.57,46.57,0,0,1,60.15,60" style="fill:#056584"/><path d="M53.73,44a3.74,3.74,0,0,0-3.16,1.49A5.68,5.68,0,0,0,49.76,49v5.1a5.63,5.63,0,0,0,.84,3.42A3.77,3.77,0,0,0,53.8,59,3.64,3.64,0,0,0,57,57.39a3.77,3.77,0,0,0,.62-1.58c0-.26.06-.85.06-1.7v-.38H55a17.28,17.28,0,0,1-.06,1.78,1.13,1.13,0,0,1-1.18,1.06c-.9,0-1.35-.67-1.35-2V52h5.27V49a5.71,5.71,0,0,0-.82-3.43A3.65,3.65,0,0,0,53.73,44M55,49.77H52.39V48.43q0-2,1.32-2c.88,0,1.32.67,1.32,2Z" style="fill:#056584"/></g></g></svg>