<svg xmlns="http://www.w3.org/2000/svg" viewBox="0 0 480.06 133.4"><title>17123_perspectives</title><g id="Layer_2" data-name="Layer 2"><g id="Layer_1-2" data-name="Layer 1"><polygon points="45.38 116.85 43.06 130.2 123.68 130.2 125.63 118.98 59.61 118.98 86.9 95.71 69.83 95.71 45.38 116.85" style="fill:#fff"/><path d="M138.45,30.07A27.8,27.8,0,0,0,135.51,17a28.8,28.8,0,0,0-7.83-9.43,33.43,33.43,0,0,0-11.21-5.69A45.89,45.89,0,0,0,103.39,0,44.63,44.63,0,0,0,88.71,2.31,41.18,41.18,0,0,0,76.78,8.72a39.59,39.59,0,0,0-8.9,9.7,47.14,47.14,0,0,0-5.61,12l12.1,2.49a33,33,0,0,1,9.79-15.66q7.12-6.41,18.69-6.41a28,28,0,0,1,8.72,1.33,20.92,20.92,0,0,1,7.21,4,20.33,20.33,0,0,1,5,6.41,18.85,18.85,0,0,1,1.87,8.54,29.7,29.7,0,0,1-1.42,9.43c-.06.18-.14.35-.2.53h13.26A47.41,47.41,0,0,0,138.45,30.07Z" style="fill:#fff"/><path d="M230.93,98a58,58,0,0,1-12.72,17.8q-7.39,6.77-16.1,6.76a17.85,17.85,0,0,1-10-2.67,19.25,19.25,0,0,1-6.49-7.12,34.63,34.63,0,0,1-3.47-10.41c-.38-2.15-.66-4.36-.83-6.63h-12.9a70.79,70.79,0,0,0,1.63,11.79,38.83,38.83,0,0,0,5.68,13.44A28.71,28.71,0,0,0,185.87,130q6.21,3.38,15.27,3.38a36.79,36.79,0,0,0,17.49-4.09,47.88,47.88,0,0,0,13.76-11,68.74,68.74,0,0,0,10.3-16c1-2.14,1.92-4.33,2.8-6.54H232C231.63,96.48,231.29,97.24,230.93,98Z" style="fill:#fff"/><path d="M192.49,35.5a59,59,0,0,1,12.72-18q7.38-6.85,16.28-6.85a17.42,17.42,0,0,1,9.88,2.67,19.21,19.21,0,0,1,6.41,7.3,37.06,37.06,0,0,1,3.47,10.68,71.13,71.13,0,0,1,1,9.79h12.83a73.82,73.82,0,0,0-1.73-14.77,39.73,39.73,0,0,0-5.77-13.7,28.89,28.89,0,0,0-10.21-9.25A31.22,31.22,0,0,0,222.27,0a37.32,37.32,0,0,0-17.58,4.09,46.33,46.33,0,0,0-13.76,11,72.8,72.8,0,0,0-10.3,16c-1.55,3.23-2.94,6.56-4.18,10H190Q191.19,38.22,192.49,35.5Z" style="fill:#fff"/><polygon points="303.22 130.2 315.68 130.2 321.72 95.71 309.22 95.71 303.22 130.2" style="fill:#fff"/><polygon points="337.92 2.2 326.53 2.2 297.9 22.5 304.13 31.75 322.62 17.68 318.54 41.11 331.11 41.11 337.92 2.2" style="fill:#fff"/><polygon points="371.61 130.2 386.56 130.2 407.96 95.71 393.2 95.71 371.61 130.2" style="fill:#fff"/><polygon points="458.1 13.95 460.23 2.2 385.49 2.2 383.53 13.41 444.11 13.41 426.76 41.11 441.24 41.11 458.1 13.95" style="fill:#fff"/><path d="M39.62,67.58a10,10,0,0,1-5.75,3.33c-2.32.55-4.09.71-8.53.71H9.13L5.65,86.51H.5L8.73,50.87H28.06c1.82,0,3.23.05,4.24.05,3.53.1,5.65.66,7.42,2.27a9.48,9.48,0,0,1,2.63,7A11.76,11.76,0,0,1,39.62,67.58ZM36,56.83a3.79,3.79,0,0,0-1.77-1.11c-1.31-.4-1.92-.45-5.3-.45H12.82l-2.73,12H26.24c4.95,0,6.92-.35,8.58-1.51a6.59,6.59,0,0,0,2.47-5.3A5.12,5.12,0,0,0,36,56.83Z" style="fill:#fff;stroke:#fff;stroke-linecap:round;stroke-linejoin:round"/><path d="M83.16,55.26H55.35l-2.47,10.6H80L79,70.1H51.92l-2.78,12H78.27l-1,4.39H43.09l8.23-35.64H84.17Z" style="fill:#fff;stroke:#fff;stroke-linecap:round;stroke-linejoin:round"/><path d="M126.6,66.42a11.12,11.12,0,0,1-6.11,3.84,24.48,24.48,0,0,1-5.3.76l9.64,15.5h-5.91l-9.09-15.24H94.75L91.17,86.51h-5.1l8.23-35.64h20.19c2.12,0,3.74,0,4.8.05a12,12,0,0,1,6,1.56,7.7,7.7,0,0,1,3.58,7A11.58,11.58,0,0,1,126.6,66.42Zm-4.39-10c-1.06-.81-2.93-1.16-6.36-1.16H98.48L95.66,66.87h16.51c5,0,7.12-.3,8.83-1.31a6.14,6.14,0,0,0,2.78-5.45A4.61,4.61,0,0,0,122.21,56.37Z" style="fill:#fff;stroke:#fff;stroke-linecap:round;stroke-linejoin:round"/><path d="M166.71,60.21a8.81,8.81,0,0,0-4.24-4,17.21,17.21,0,0,0-2.88-1.06,18.8,18.8,0,0,0-6.16-.91c-6.86,0-11,2.12-11,5.65a3.28,3.28,0,0,0,1.72,3c1.51.76,3.79,1.36,9.79,2.62,5.5,1.16,7.67,1.77,9.74,2.73,3.69,1.72,5.3,3.94,5.3,7.32a10.31,10.31,0,0,1-3.23,7.52c-3,2.93-7.82,4.29-14.49,4.29a39.1,39.1,0,0,1-5.45-.35,19.05,19.05,0,0,1-9-3.43,13.21,13.21,0,0,1-5.35-7.27l5.25-1.36a8.93,8.93,0,0,0,3.38,4.95c2.73,2,6.46,3,11.41,3,7.57,0,12.32-2.52,12.32-6.66a3.58,3.58,0,0,0-1.16-2.83c-1.26-1-2.93-1.51-9.34-2.83-5.91-1.21-8.53-1.87-10.7-2.73-3.43-1.31-5.3-3.84-5.3-7.22a10,10,0,0,1,3.23-7.07c2.57-2.37,6.92-3.53,12.87-3.53,9.14,0,15.65,3,18.22,8.53Z" style="fill:#fff;stroke:#fff;stroke-linecap:round;stroke-linejoin:round"/><path d="M215,67.58a10,10,0,0,1-5.75,3.33c-2.32.55-4.09.71-8.53.71h-16.2l-3.48,14.89h-5.15l8.23-35.64h19.33c1.82,0,3.23.05,4.24.05,3.53.1,5.65.66,7.42,2.27a9.48,9.48,0,0,1,2.63,7A11.76,11.76,0,0,1,215,67.58Zm-3.58-10.75a3.79,3.79,0,0,0-1.77-1.11c-1.31-.4-1.92-.45-5.3-.45H188.24l-2.73,12h16.15c4.95,0,6.92-.35,8.58-1.51a6.59,6.59,0,0,0,2.47-5.3A5.12,5.12,0,0,0,211.46,56.83Z" style="fill:#fff;stroke:#fff;stroke-linecap:round;stroke-linejoin:round"/><path d="M259.59,55.26H231.78l-2.47,10.6h27.1l-1,4.24h-27.1l-2.78,12h29.12l-1,4.39H219.51l8.23-35.64H260.6Z" style="fill:#fff;stroke:#fff;stroke-linecap:round;stroke-linejoin:round"/><path d="M299.55,62.33c-1.72-5.15-6.66-8.18-13.33-8.18-9.79,0-17.06,6.92-17.06,16.1,0,5.45,2.52,9.34,7.47,11.41A18.76,18.76,0,0,0,284,83.12a16.32,16.32,0,0,0,14.23-7.42L302.88,77a16.36,16.36,0,0,1-3.53,4.69,19.61,19.61,0,0,1-4.19,3,23,23,0,0,1-11.61,2.78c-12,0-19.53-6.41-19.53-16.61C264,58.59,273.3,50,286.43,50c9.19,0,15.29,3.79,18.27,11.46Z" style="fill:#fff;stroke:#fff;stroke-linecap:round;stroke-linejoin:round"/><path d="M342.3,55.11H327.71l-7.22,31.4h-5l7.22-31.4H308.18l1-4.24h34.17Z" style="fill:#fff;stroke:#fff;stroke-linecap:round;stroke-linejoin:round"/><path d="M348.33,86.51h-5.15l8.23-35.64h5.1Z" style="fill:#fff;stroke:#fff;stroke-linecap:round;stroke-linejoin:round"/><path d="M375.87,86.51h-5L362.5,50.87h5.45l6.51,29.53L394.6,50.87h5.86Z" style="fill:#fff;stroke:#fff;stroke-linecap:round;stroke-linejoin:round"/><path d="M438.27,55.26H410.46L408,65.86h27.11l-1,4.24H407l-2.78,12h29.12l-1,4.39H398.19l8.23-35.64h32.86Z" style="fill:#fff;stroke:#fff;stroke-linecap:round;stroke-linejoin:round"/><path d="M474.62,60.21a8.81,8.81,0,0,0-4.24-4,17.21,17.21,0,0,0-2.88-1.06,18.8,18.8,0,0,0-6.16-.91c-6.86,0-11,2.12-11,5.65a3.28,3.28,0,0,0,1.72,3c1.51.76,3.79,1.36,9.79,2.62,5.5,1.16,7.67,1.77,9.74,2.73,3.69,1.72,5.3,3.94,5.3,7.32a10.31,10.31,0,0,1-3.23,7.52c-3,2.93-7.82,4.29-14.49,4.29a39.1,39.1,0,0,1-5.45-.35,19.05,19.05,0,0,1-9-3.43,13.21,13.21,0,0,1-5.35-7.27l5.25-1.36A8.93,8.93,0,0,0,448,79.89c2.73,2,6.46,3,11.41,3,7.57,0,12.32-2.52,12.32-6.66a3.58,3.58,0,0,0-1.16-2.83c-1.26-1-2.93-1.51-9.34-2.83-5.91-1.21-8.53-1.87-10.7-2.73-3.43-1.31-5.3-3.84-5.3-7.22a10,10,0,0,1,3.23-7.07C451,51.17,455.38,50,461.34,50c9.14,0,15.65,3,18.22,8.53Z" style="fill:#fff;stroke:#fff;stroke-linecap:round;stroke-linejoin:round"/></g></g></svg>