<svg xmlns="http://www.w3.org/2000/svg" viewBox="0 0 12.8 12.8"><title>17123_twitter</title><g id="Layer_2" data-name="Layer 2"><g id="Layer_1-2" data-name="Layer 1"><path d="M6.4,0a6.4,6.4,0,1,0,6.4,6.4A6.4,6.4,0,0,0,6.4,0M9.59,5v.2a4.48,4.48,0,0,1-6.9,3.77l.38,0a3.16,3.16,0,0,0,2-.68A1.58,1.58,0,0,1,3.55,7.19a1.46,1.46,0,0,0,.3,0,1.59,1.59,0,0,0,.41-.05A1.58,1.58,0,0,1,3,5.63v0a1.55,1.55,0,0,0,.71.2A1.57,1.57,0,0,1,3,4.49a1.55,1.55,0,0,1,.21-.79A4.47,4.47,0,0,0,6.47,5.34a1.51,1.51,0,0,1,0-.36A1.58,1.58,0,0,1,9.16,3.91a3.17,3.17,0,0,0,1-.38,1.57,1.57,0,0,1-.69.87,3.17,3.17,0,0,0,.91-.25A3.24,3.24,0,0,1,9.59,5" style="fill:#056584"/></g></g></svg>